# xmcd
#
# Track frame offsets: 
#        150
#        23047
#        41522
#        60362
#        76575
#        95229
#        113865
#        129955
#        149574
#        163484
#
# Disc length: 2406 seconds
#
# Revision: 0
# Processed by: cddbd v1.5.2PL0 Copyright (c) Steve Scherf et al.
# Submitted via: ExactAudioCopyFreeDBPlugin 1.0
#
DISCID=8109640a
DTITLE=American Aquarium - Wolves
DYEAR=2015
DGENRE=Americana
TTITLE0=Family Problems
TTITLE1=Southern Sadness
TTITLE2=Man I'm Supposed to Be
TTITLE3=Wichita Falls
TTITLE4=Old North State
TTITLE5=Ramblin' Ways
TTITLE6=Losing Side of Twenty-Five
TTITLE7=End Over End
TTITLE8=Wolves
TTITLE9=Who Needs a Song
EXTD=
EXTT0=
EXTT1=
EXTT2=
EXTT3=
EXTT4=
EXTT5=
EXTT6=
EXTT7=
EXTT8=
EXTT9=
PLAYORDER=
